<svg width="20" height="16" viewBox="0 0 20 16" fill="none" xmlns="http://www.w3.org/2000/svg">
<path d="M8.75214 10.4596C8.19059 10.4596 7.86166 10.1435 7.86166 9.57622V8.91978C5.50313 8.75768 3.15262 8.27144 0.713867 7.33941V6.00224C3.71417 7.33132 6.72251 7.80138 9.99558 7.80138C13.2767 7.80138 16.285 7.33132 19.2853 6.00224V7.33941C16.8465 8.27144 14.496 8.75768 12.1375 8.91978V9.57622C12.1375 10.1435 11.8086 10.4596 11.247 10.4596H8.75214ZM3.19273 15.8489H16.8064C18.467 15.8489 19.2853 15.0386 19.2853 13.3771V5.49167C19.2853 3.83028 18.467 3.01985 16.8064 3.01985H3.19273C1.54015 3.01985 0.713867 3.83028 0.713867 5.49167V13.3771C0.713867 15.0386 1.54015 15.8489 3.19273 15.8489ZM5.92831 3.72493H7.17175V2.29047C7.17175 1.67453 7.53275 1.32605 8.15848 1.32605H11.8407C12.4664 1.32605 12.8194 1.67453 12.8194 2.29047V3.70872H14.0628V2.37962C14.0628 0.856001 13.2686 0.142822 11.8166 0.142822H8.1745C6.80273 0.142822 5.92831 0.856001 5.92831 2.37962V3.72493Z" fill="#B3B3B3"/>
</svg>
