<svg id="icon-bank" xmlns="http://www.w3.org/2000/svg">
<rect fill="#1E1E1E"/>
<g id="Security Page - Mobile">
<rect width="390" height="4397" transform="translate(-40 -60)" fill="#1A1A1A"/>
<g id="Navbar">
<rect x="-23.5" y="-19.5" width="357" height="67" rx="33.5" fill="#1C1C1C"/>
<rect x="-23.5" y="-19.5" width="357" height="67" rx="33.5" stroke="#262626"/>
<g id="Logo">
<g id="shape-30">
<g id="shape-30_2">
<path d="M6.5013 13.6751L13.0013 7.17513L19.5013 13.6751L13.0013 20.1751L6.5013 13.6751Z" fill="#CAFF33"/>
<path d="M23.8346 9.3418L19.5013 13.6751V7.17513H13.0013L17.3346 2.8418H23.8346V9.3418Z" fill="#CAFF33"/>
<path d="M23.8346 18.0085L19.5013 13.6751V20.1751H13.0013L17.3346 24.5085H23.8346V18.0085Z" fill="#CAFF33"/>
<path d="M2.16797 18.0085L6.5013 13.6751V20.1751H13.0013L8.66797 24.5085H2.16797L2.16797 18.0085Z" fill="#CAFF33"/>
<path d="M2.16797 9.3418L6.5013 13.6751V7.17513H13.0013L8.66797 2.8418H2.16797L2.16797 9.3418Z" fill="#CAFF33"/>
</g>
</g>
</g>
</g>
</g>
</svg>
