<svg width="20" id="plus" height="23" viewBox="0 0 24 23" fill="none" xmlns="http://www.w3.org/2000/svg">
<rect x="0.536133" y="0.126465" width="22.5976" height="22.5298" rx="11.2649" fill="#CAFF33"/>
<path fill-rule="evenodd" clip-rule="evenodd" d="M11.8353 7.93945C12.0483 7.93945 12.2209 8.11117 12.2209 8.323V11.0079L14.9206 11.0079C15.1336 11.0079 15.3063 11.1796 15.3063 11.3914C15.3063 11.6032 15.1336 11.775 14.9206 11.775H12.2209V14.4598C12.2209 14.6716 12.0483 14.8433 11.8353 14.8433C11.6223 14.8433 11.4496 14.6716 11.4496 14.4598V11.7749H8.74993C8.53693 11.7749 8.36426 11.6032 8.36426 11.3914C8.36426 11.1796 8.53693 11.0079 8.74993 11.0079L11.4496 11.0079V8.323C11.4496 8.11117 11.6223 7.93945 11.8353 7.93945Z" fill="#1A1A1A"/>
</svg>
