<svg width="23" height="23" viewBox="0 0 23 23" fill="none" xmlns="http://www.w3.org/2000/svg">
<rect x="0.0957031" y="0.208496" width="22.5976" height="22.5298" rx="11.2649" fill="#CAFF33"/>
<path fill-rule="evenodd" clip-rule="evenodd" d="M13.3694 6.71129C13.1955 6.89756 13.2064 7.18878 13.3937 7.36175L14.6898 8.55867L9.38909 8.55867C9.13349 8.55867 8.92629 8.76473 8.92629 9.01893C8.92629 9.27312 9.13349 9.47919 9.38909 9.47919L14.6898 9.47919L13.3937 10.6761C13.2064 10.8491 13.1955 11.1403 13.3694 11.3266C13.5434 11.5128 13.8362 11.5236 14.0235 11.3507L16.1833 9.3562C16.2776 9.26912 16.3311 9.14691 16.3311 9.01893C16.3311 8.89094 16.2776 8.76874 16.1833 8.68165L14.0235 6.6872C13.8362 6.51423 13.5434 6.52501 13.3694 6.71129ZM9.4197 11.6207C9.24577 11.4345 8.95294 11.4237 8.76564 11.5966L6.6059 13.5911C6.51159 13.6782 6.45801 13.8004 6.45801 13.9284C6.45801 14.0563 6.51159 14.1786 6.6059 14.2656L8.76564 16.2601C8.95294 16.4331 9.24577 16.4223 9.4197 16.236C9.59362 16.0497 9.58277 15.7585 9.39547 15.5855L8.09936 14.3886H13.4001C13.6557 14.3886 13.8629 14.1826 13.8629 13.9284C13.8629 13.6742 13.6557 13.4681 13.4001 13.4681H8.09936L9.39547 12.2712C9.58277 12.0982 9.59362 11.807 9.4197 11.6207Z" fill="#1C1C1C"/>
</svg>
