<svg xmlns="http://www.w3.org/2000/svg" viewBox="0 0 24 24">


    <symbol id="graphic">
        <path fill-rule="evenodd" clip-rule="evenodd"
            d="M2.25 2.25C1.83579 2.25 1.5 2.58579 1.5 3C1.5 3.41421 1.83579 3.75 2.25 3.75H3V14.25C3 15.9069 4.34315 17.25 6 17.25H7.20943L6.03849 20.7628C5.9075 21.1558 6.11987 21.5805 6.51283 21.7115C6.90579 21.8425 7.33053 21.6301 7.46151 21.2372L7.79057 20.25H16.2094L16.5385 21.2372C16.6695 21.6301 17.0942 21.8425 17.4872 21.7115C17.8801 21.5805 18.0925 21.1558 17.9615 20.7628L16.7906 17.25H18C19.6569 17.25 21 15.9069 21 14.25V3.75H21.75C22.1642 3.75 22.5 3.41421 22.5 3C22.5 2.58579 22.1642 2.25 21.75 2.25H2.25ZM8.29057 18.75L8.79057 17.25H15.2094L15.7094 18.75H8.29057ZM15.75 6.75C15.75 6.33579 15.4142 6 15 6C14.5858 6 14.25 6.33579 14.25 6.75V12.75C14.25 13.1642 14.5858 13.5 15 13.5C15.4142 13.5 15.75 13.1642 15.75 12.75V6.75ZM12.75 9C12.75 8.58579 12.4142 8.25 12 8.25C11.5858 8.25 11.25 8.58579 11.25 9V12.75C11.25 13.1642 11.5858 13.5 12 13.5C12.4142 13.5 12.75 13.1642 12.75 12.75V9ZM9.75 11.25C9.75 10.8358 9.41421 10.5 9 10.5C8.58579 10.5 8.25 10.8358 8.25 11.25V12.75C8.25 13.1642 8.58579 13.5 9 13.5C9.41421 13.5 9.75 13.1642 9.75 12.75V11.25Z"
            fill="#CAFF33" />
    </symbol>


    <symbol id="lamp">
        <path
            d="M12 0.75C7.44365 0.75 3.75 4.44365 3.75 9C3.75 12.0508 5.40631 14.7138 7.86516 16.1405C8.55062 16.5382 8.97985 17.1484 8.99928 17.7626C9.00999 18.1013 9.24656 18.3908 9.5764 18.4687C9.92778 18.5518 10.2859 18.6171 10.6496 18.6639C10.9732 18.7055 11.2502 18.4462 11.2502 18.12V13.4589C10.9309 13.4236 10.618 13.366 10.3132 13.2875C9.9121 13.1843 9.67061 12.7754 9.77385 12.3743C9.8771 11.9731 10.286 11.7316 10.6871 11.8349C11.1059 11.9427 11.5458 12.0002 12.0002 12.0002C12.4546 12.0002 12.8944 11.9427 13.3132 11.8349C13.7144 11.7316 14.1233 11.9731 14.2265 12.3743C14.3298 12.7754 14.0883 13.1843 13.6871 13.2875C13.3823 13.366 13.0695 13.4236 12.7502 13.4589V18.1199C12.7502 18.4462 13.0272 18.7054 13.3508 18.6638C13.7144 18.6171 14.0723 18.5518 14.4236 18.4687C14.7534 18.3908 14.99 18.1013 15.0007 17.7626C15.0201 17.1484 15.4494 16.5382 16.1348 16.1405C18.5937 14.7138 20.25 12.0508 20.25 9C20.25 4.44365 16.5563 0.75 12 0.75Z"
            fill="#CAFF33" />
        <path fill-rule="evenodd" clip-rule="evenodd"
            d="M9.01314 19.8997C9.09034 19.4927 9.48282 19.2254 9.88978 19.3026C10.5727 19.4321 11.2781 19.5 12 19.5C12.7219 19.5 13.4273 19.4321 14.1102 19.3026C14.5172 19.2254 14.9097 19.4927 14.9869 19.8997C15.0641 20.3066 14.7967 20.6991 14.3898 20.7763C13.6151 20.9232 12.8162 21 12 21C11.1838 21 10.3849 20.9232 9.61022 20.7763C9.20327 20.6991 8.93594 20.3066 9.01314 19.8997Z"
            fill="#CAFF33" />
        <path fill-rule="evenodd" clip-rule="evenodd"
            d="M9.75407 22.344C9.79717 21.932 10.1661 21.633 10.578 21.6761C11.0451 21.7249 11.5195 21.75 12 21.75C12.4805 21.75 12.9549 21.7249 13.422 21.6761C13.8339 21.633 14.2028 21.932 14.2459 22.344C14.289 22.7559 13.99 23.1248 13.578 23.1679C13.0592 23.2222 12.5327 23.25 12 23.25C11.4673 23.25 10.9408 23.2222 10.422 23.1679C10.01 23.1248 9.71097 22.7559 9.75407 22.344Z"
            fill="#CAFF33" />
    </symbol>


    <symbol id="bag">
        <path fill-rule="evenodd" clip-rule="evenodd"
            d="M7.5 5.25C7.5 3.59315 8.84315 2.25 10.5 2.25H13.5C15.1569 2.25 16.5 3.59315 16.5 5.25V5.45498C17.4325 5.54034 18.3574 5.65196 19.274 5.78912C20.7281 6.00668 21.75 7.27163 21.75 8.70569V11.7389C21.75 12.95 21.0164 14.0913 19.8137 14.4911C17.3566 15.308 14.7292 15.75 12 15.75C9.27087 15.75 6.64342 15.308 4.18627 14.4911C2.98364 14.0912 2.25 12.95 2.25 11.7389V8.70569C2.25 7.27163 3.27191 6.00668 4.72596 5.78912C5.6426 5.65196 6.56753 5.54034 7.5 5.45498V5.25ZM15 5.25V5.34082C14.0077 5.28056 13.0074 5.25 12 5.25C10.9927 5.25 9.99235 5.28056 9 5.34082V5.25C9 4.42157 9.67157 3.75 10.5 3.75H13.5C14.3284 3.75 15 4.42157 15 5.25ZM12 13.5C12.4142 13.5 12.75 13.1642 12.75 12.75C12.75 12.3358 12.4142 12 12 12C11.5858 12 11.25 12.3358 11.25 12.75C11.25 13.1642 11.5858 13.5 12 13.5Z"
            fill="#CAFF33" />
        <path
            d="M3 18.4V15.6039C3.22304 15.7263 3.46097 15.8307 3.71303 15.9145C6.32087 16.7815 9.10801 17.25 12 17.25C14.892 17.25 17.6791 16.7815 20.287 15.9145C20.539 15.8307 20.777 15.7263 21 15.604V18.4C21 19.8519 19.9528 21.1275 18.4769 21.3234C16.3575 21.6048 14.1955 21.75 12 21.75C9.80447 21.75 7.64246 21.6048 5.52314 21.3234C4.04724 21.1275 3 19.8519 3 18.4Z"
            fill="#CAFF33" />
    </symbol>


    <symbol id="locker">
        <path fill-rule="evenodd" clip-rule="evenodd"
            d="M1.5 9.83233V11.625C1.5 12.6605 2.33947 13.5 3.375 13.5H20.625C21.6605 13.5 22.5 12.6605 22.5 11.625V9.83233C22.5 9.11619 22.2438 8.42368 21.7778 7.87995L18.4929 4.04763C17.923 3.38269 17.0909 3 16.2151 3H7.78485C6.90908 3 6.07703 3.38269 5.50708 4.04763L2.22223 7.87995C1.75618 8.42368 1.5 9.1162 1.5 9.83233ZM7.78485 4.5C7.34697 4.5 6.93094 4.69134 6.64597 5.02381L3.88067 8.25H7.04584C8.0489 8.25 8.98559 8.7513 9.54199 9.5859L9.70609 9.83205C9.98429 10.2493 10.4526 10.5 10.9542 10.5H13.0458C13.5474 10.5 14.0157 10.2493 14.2939 9.83205L14.458 9.5859C15.0144 8.7513 15.9511 8.25 16.9542 8.25H20.1193L17.354 5.02381C17.0691 4.69134 16.653 4.5 16.2151 4.5H7.78485Z"
            fill="#CAFF33" />
        <path
            d="M2.8125 15C2.08763 15 1.5 15.5876 1.5 16.3125V18C1.5 19.6569 2.84315 21 4.5 21H19.5C21.1569 21 22.5 19.6569 22.5 18V16.3125C22.5 15.5876 21.9124 15 21.1875 15H16.9542C15.9511 15 15.0144 15.5013 14.458 16.3359L14.2939 16.5821C14.0157 16.9993 13.5474 17.25 13.0458 17.25H10.9542C10.4526 17.25 9.98429 16.9993 9.70609 16.5821L9.54199 16.3359C8.98559 15.5013 8.0489 15 7.04584 15H2.8125Z"
            fill="#CAFF33" />
    </symbol>


</svg>