<svg xmlns="http://www.w3.org/2000/svg" style="display: none">
<symbol id="quotes" viewBox="0 0 44 44" fill="none">
<path d="M15.7285 35.5376C15.7285 36.3659 15.0569 37.0375 14.2285 37.0376H5.03125C4.20286 37.0376 3.53131 36.366 3.53125 35.5376V28.3921C3.53125 25.988 3.97045 23.4977 4.84082 20.9243L4.8418 20.9214C5.73692 18.3256 6.94801 15.8784 8.47461 13.5806L8.47559 13.5796C9.87223 11.4887 11.4216 9.68629 13.126 8.17725C13.6339 7.72758 14.3712 7.69852 14.9199 8.06396L20.0117 11.4565C20.6963 11.9127 20.8785 12.8264 20.4551 13.5151C19.1703 15.6051 18.0748 17.7764 17.1699 20.0298C16.1855 22.5184 15.7031 25.2758 15.7285 28.3071V35.5376ZM35.4404 35.5376C35.4404 36.3659 34.7687 37.0374 33.9404 37.0376H24.7432C23.9148 37.0376 23.2432 36.366 23.2432 35.5376V28.3921C23.2432 25.988 23.6824 23.4978 24.5527 20.9243L24.5537 20.9214C25.4488 18.3256 26.6599 15.8784 28.1865 13.5806L28.1875 13.5796C29.5842 11.4887 31.1335 9.68629 32.8379 8.17725C33.3458 7.72762 34.0831 7.69843 34.6318 8.06396L39.7236 11.4565C40.4082 11.9127 40.5904 12.8264 40.167 13.5151C38.8822 15.6051 37.7868 17.7764 36.8818 20.0298C35.8975 22.5184 35.415 25.2758 35.4404 28.3071V35.5376Z" fill="url(#paint0_linear_116_11734)" stroke="#CAFF33"/>
<defs>
<linearGradient id="paint0_linear_116_11734" x1="22.1489" y1="8.06689" x2="22.1489" y2="36.5375" gradientUnits="userSpaceOnUse">
<stop stop-color="#CAFF33"/>
<stop offset="1" stop-color="#191919"/>
</linearGradient>
</defs>
</symbol>
</svg>